<mxfile host="app.diagrams.net" agent="Mozilla/5.0 (X11; CrOS x86_64 14541.0.0) AppleWebKit/537.36 (KHTML, like Gecko) Chrome/125.0.0.0 Safari/537.36" version="24.7.6" pages="5">
  <diagram name="Page-1" id="k4V_Q0UMikpG8RIwVe4a">
    <mxGraphModel dx="1200" dy="1846" grid="1" gridSize="10" guides="1" tooltips="1" connect="1" arrows="1" fold="1" page="1" pageScale="1" pageWidth="827" pageHeight="1169" math="0" shadow="0">
      <root>
        <mxCell id="0" />
        <mxCell id="1" parent="0" />
        <mxCell id="CTpu4BV2ukPu0gteqbcD-2" value="" style="rounded=0;whiteSpace=wrap;html=1;" vertex="1" parent="1">
          <mxGeometry x="203.5" y="-90" width="420" height="520" as="geometry" />
        </mxCell>
        <mxCell id="CTpu4BV2ukPu0gteqbcD-6" value="food critic" style="shape=umlActor;verticalLabelPosition=bottom;verticalAlign=top;html=1;outlineConnect=0;" vertex="1" parent="1">
          <mxGeometry x="60" y="130" width="70" height="180" as="geometry" />
        </mxCell>
        <mxCell id="CTpu4BV2ukPu0gteqbcD-7" value="chef" style="shape=umlActor;verticalLabelPosition=bottom;verticalAlign=top;html=1;outlineConnect=0;" vertex="1" parent="1">
          <mxGeometry x="690" y="130" width="80" height="180" as="geometry" />
        </mxCell>
        <mxCell id="CTpu4BV2ukPu0gteqbcD-9" value="eat food" style="text;html=1;align=center;verticalAlign=middle;whiteSpace=wrap;rounded=0;" vertex="1" parent="1">
          <mxGeometry x="397" y="-10" width="60" height="30" as="geometry" />
        </mxCell>
        <mxCell id="CTpu4BV2ukPu0gteqbcD-12" value="fay food" style="text;html=1;align=center;verticalAlign=middle;whiteSpace=wrap;rounded=0;" vertex="1" parent="1">
          <mxGeometry x="380" y="110" width="90" height="30" as="geometry" />
        </mxCell>
        <mxCell id="CTpu4BV2ukPu0gteqbcD-13" value="" style="ellipse;whiteSpace=wrap;html=1;" vertex="1" parent="1">
          <mxGeometry x="370" y="310" width="120" height="80" as="geometry" />
        </mxCell>
        <mxCell id="CTpu4BV2ukPu0gteqbcD-14" value="" style="ellipse;whiteSpace=wrap;html=1;" vertex="1" parent="1">
          <mxGeometry x="370" y="200" width="120" height="80" as="geometry" />
        </mxCell>
        <mxCell id="CTpu4BV2ukPu0gteqbcD-15" value="" style="ellipse;whiteSpace=wrap;html=1;" vertex="1" parent="1">
          <mxGeometry x="367" y="80" width="120" height="80" as="geometry" />
        </mxCell>
        <mxCell id="CTpu4BV2ukPu0gteqbcD-16" value="" style="ellipse;whiteSpace=wrap;html=1;" vertex="1" parent="1">
          <mxGeometry x="367" y="-30" width="120" height="80" as="geometry" />
        </mxCell>
        <mxCell id="CTpu4BV2ukPu0gteqbcD-17" value="eat food" style="text;html=1;align=center;verticalAlign=middle;whiteSpace=wrap;rounded=0;" vertex="1" parent="1">
          <mxGeometry x="397" width="60" height="30" as="geometry" />
        </mxCell>
        <mxCell id="CTpu4BV2ukPu0gteqbcD-18" value="fay food" style="text;html=1;align=center;verticalAlign=middle;whiteSpace=wrap;rounded=0;" vertex="1" parent="1">
          <mxGeometry x="400" y="105" width="60" height="30" as="geometry" />
        </mxCell>
        <mxCell id="CTpu4BV2ukPu0gteqbcD-19" value="drink wine" style="text;html=1;align=center;verticalAlign=middle;whiteSpace=wrap;rounded=0;" vertex="1" parent="1">
          <mxGeometry x="397" y="225" width="60" height="30" as="geometry" />
        </mxCell>
        <mxCell id="CTpu4BV2ukPu0gteqbcD-21" value="cook food" style="text;html=1;align=center;verticalAlign=middle;whiteSpace=wrap;rounded=0;" vertex="1" parent="1">
          <mxGeometry x="400" y="335" width="60" height="30" as="geometry" />
        </mxCell>
        <mxCell id="CTpu4BV2ukPu0gteqbcD-29" value="" style="endArrow=classic;html=1;rounded=0;entryX=0;entryY=0.5;entryDx=0;entryDy=0;" edge="1" parent="1" target="CTpu4BV2ukPu0gteqbcD-16">
          <mxGeometry width="50" height="50" relative="1" as="geometry">
            <mxPoint x="130" y="190" as="sourcePoint" />
            <mxPoint x="180" y="140" as="targetPoint" />
          </mxGeometry>
        </mxCell>
        <mxCell id="CTpu4BV2ukPu0gteqbcD-31" value="" style="endArrow=classic;html=1;rounded=0;entryX=0;entryY=0.5;entryDx=0;entryDy=0;" edge="1" parent="1" target="CTpu4BV2ukPu0gteqbcD-15">
          <mxGeometry width="50" height="50" relative="1" as="geometry">
            <mxPoint x="130" y="190" as="sourcePoint" />
            <mxPoint x="180" y="140" as="targetPoint" />
          </mxGeometry>
        </mxCell>
        <mxCell id="CTpu4BV2ukPu0gteqbcD-32" value="" style="endArrow=classic;html=1;rounded=0;entryX=0.083;entryY=0.625;entryDx=0;entryDy=0;entryPerimeter=0;" edge="1" parent="1" target="CTpu4BV2ukPu0gteqbcD-14">
          <mxGeometry width="50" height="50" relative="1" as="geometry">
            <mxPoint x="130" y="190" as="sourcePoint" />
            <mxPoint x="180" y="140" as="targetPoint" />
          </mxGeometry>
        </mxCell>
        <mxCell id="CTpu4BV2ukPu0gteqbcD-33" value="" style="endArrow=classic;html=1;rounded=0;entryX=0.922;entryY=0.259;entryDx=0;entryDy=0;entryPerimeter=0;" edge="1" parent="1" target="CTpu4BV2ukPu0gteqbcD-13">
          <mxGeometry width="50" height="50" relative="1" as="geometry">
            <mxPoint x="690" y="190" as="sourcePoint" />
            <mxPoint x="740" y="140" as="targetPoint" />
          </mxGeometry>
        </mxCell>
        <mxCell id="ZloASRTc42xfuOTRgI9h-1" value="restaurant (simplified)" style="text;html=1;align=center;verticalAlign=middle;whiteSpace=wrap;rounded=0;" vertex="1" parent="1">
          <mxGeometry x="380" y="-70" width="80" height="20" as="geometry" />
        </mxCell>
      </root>
    </mxGraphModel>
  </diagram>
  <diagram id="SmvuAVlO0jhbNsPTxyNn" name="Page-2">
    <mxGraphModel dx="1200" dy="677" grid="1" gridSize="10" guides="1" tooltips="1" connect="1" arrows="1" fold="1" page="1" pageScale="1" pageWidth="827" pageHeight="1169" math="0" shadow="0">
      <root>
        <mxCell id="0" />
        <mxCell id="1" parent="0" />
        <mxCell id="U6eZ_UIwISc4JZZjRvjD-1" value="" style="ellipse;whiteSpace=wrap;html=1;" vertex="1" parent="1">
          <mxGeometry x="340" y="80" width="120" height="80" as="geometry" />
        </mxCell>
        <mxCell id="U6eZ_UIwISc4JZZjRvjD-2" value="" style="ellipse;whiteSpace=wrap;html=1;" vertex="1" parent="1">
          <mxGeometry x="340" y="220" width="120" height="80" as="geometry" />
        </mxCell>
        <mxCell id="U6eZ_UIwISc4JZZjRvjD-3" value="" style="ellipse;whiteSpace=wrap;html=1;" vertex="1" parent="1">
          <mxGeometry x="340" y="370" width="120" height="80" as="geometry" />
        </mxCell>
        <mxCell id="U6eZ_UIwISc4JZZjRvjD-4" value="" style="ellipse;whiteSpace=wrap;html=1;" vertex="1" parent="1">
          <mxGeometry x="340" y="520" width="120" height="80" as="geometry" />
        </mxCell>
        <mxCell id="U6eZ_UIwISc4JZZjRvjD-5" value="library user" style="shape=umlActor;verticalLabelPosition=bottom;verticalAlign=top;html=1;outlineConnect=0;" vertex="1" parent="1">
          <mxGeometry x="70" y="230" width="70" height="140" as="geometry" />
        </mxCell>
        <mxCell id="U6eZ_UIwISc4JZZjRvjD-6" value="librarian" style="shape=umlActor;verticalLabelPosition=bottom;verticalAlign=top;html=1;outlineConnect=0;" vertex="1" parent="1">
          <mxGeometry x="650" y="220" width="70" height="140" as="geometry" />
        </mxCell>
        <mxCell id="U6eZ_UIwISc4JZZjRvjD-13" value="register book loan" style="text;html=1;align=center;verticalAlign=middle;whiteSpace=wrap;rounded=0;" vertex="1" parent="1">
          <mxGeometry x="370" y="105" width="60" height="30" as="geometry" />
        </mxCell>
        <mxCell id="U6eZ_UIwISc4JZZjRvjD-14" value="register book return" style="text;html=1;align=center;verticalAlign=middle;whiteSpace=wrap;rounded=0;" vertex="1" parent="1">
          <mxGeometry x="370" y="245" width="60" height="30" as="geometry" />
        </mxCell>
        <mxCell id="U6eZ_UIwISc4JZZjRvjD-16" value="query book avalibility" style="text;html=1;align=center;verticalAlign=middle;whiteSpace=wrap;rounded=0;" vertex="1" parent="1">
          <mxGeometry x="370" y="395" width="60" height="30" as="geometry" />
        </mxCell>
        <mxCell id="U6eZ_UIwISc4JZZjRvjD-17" value="add new book" style="text;html=1;align=center;verticalAlign=middle;whiteSpace=wrap;rounded=0;" vertex="1" parent="1">
          <mxGeometry x="370" y="540" width="60" height="30" as="geometry" />
        </mxCell>
        <mxCell id="U6eZ_UIwISc4JZZjRvjD-18" value="" style="endArrow=classic;html=1;rounded=0;exitX=1;exitY=0.3333333333333333;exitDx=0;exitDy=0;exitPerimeter=0;" edge="1" parent="1" source="U6eZ_UIwISc4JZZjRvjD-5">
          <mxGeometry width="50" height="50" relative="1" as="geometry">
            <mxPoint x="450" y="420" as="sourcePoint" />
            <mxPoint x="340" y="130" as="targetPoint" />
          </mxGeometry>
        </mxCell>
        <mxCell id="U6eZ_UIwISc4JZZjRvjD-19" value="" style="endArrow=classic;html=1;rounded=0;exitX=1;exitY=0.3333333333333333;exitDx=0;exitDy=0;exitPerimeter=0;entryX=0;entryY=0.5;entryDx=0;entryDy=0;" edge="1" parent="1" source="U6eZ_UIwISc4JZZjRvjD-5" target="U6eZ_UIwISc4JZZjRvjD-2">
          <mxGeometry width="50" height="50" relative="1" as="geometry">
            <mxPoint x="450" y="420" as="sourcePoint" />
            <mxPoint x="500" y="370" as="targetPoint" />
          </mxGeometry>
        </mxCell>
        <mxCell id="U6eZ_UIwISc4JZZjRvjD-20" value="" style="endArrow=classic;html=1;rounded=0;exitX=1;exitY=0.3333333333333333;exitDx=0;exitDy=0;exitPerimeter=0;entryX=0;entryY=0.5;entryDx=0;entryDy=0;" edge="1" parent="1" source="U6eZ_UIwISc4JZZjRvjD-5" target="U6eZ_UIwISc4JZZjRvjD-3">
          <mxGeometry width="50" height="50" relative="1" as="geometry">
            <mxPoint x="100" y="450" as="sourcePoint" />
            <mxPoint x="150" y="400" as="targetPoint" />
          </mxGeometry>
        </mxCell>
        <mxCell id="U6eZ_UIwISc4JZZjRvjD-21" value="" style="endArrow=classic;html=1;rounded=0;exitX=0;exitY=0.3333333333333333;exitDx=0;exitDy=0;exitPerimeter=0;entryX=1;entryY=0.5;entryDx=0;entryDy=0;" edge="1" parent="1" source="U6eZ_UIwISc4JZZjRvjD-6" target="U6eZ_UIwISc4JZZjRvjD-1">
          <mxGeometry width="50" height="50" relative="1" as="geometry">
            <mxPoint x="480" y="390" as="sourcePoint" />
            <mxPoint x="490" y="190" as="targetPoint" />
          </mxGeometry>
        </mxCell>
        <mxCell id="U6eZ_UIwISc4JZZjRvjD-22" value="" style="endArrow=classic;html=1;rounded=0;exitX=0;exitY=0.3333333333333333;exitDx=0;exitDy=0;exitPerimeter=0;" edge="1" parent="1" source="U6eZ_UIwISc4JZZjRvjD-6" target="U6eZ_UIwISc4JZZjRvjD-2">
          <mxGeometry width="50" height="50" relative="1" as="geometry">
            <mxPoint x="50" y="540" as="sourcePoint" />
            <mxPoint x="100" y="490" as="targetPoint" />
          </mxGeometry>
        </mxCell>
        <mxCell id="U6eZ_UIwISc4JZZjRvjD-26" value="" style="endArrow=classic;html=1;rounded=0;exitX=0;exitY=0.3333333333333333;exitDx=0;exitDy=0;exitPerimeter=0;entryX=1;entryY=0.5;entryDx=0;entryDy=0;" edge="1" parent="1" source="U6eZ_UIwISc4JZZjRvjD-6" target="U6eZ_UIwISc4JZZjRvjD-3">
          <mxGeometry width="50" height="50" relative="1" as="geometry">
            <mxPoint x="600" y="280" as="sourcePoint" />
            <mxPoint x="80" y="460" as="targetPoint" />
          </mxGeometry>
        </mxCell>
        <mxCell id="U6eZ_UIwISc4JZZjRvjD-29" value="" style="endArrow=classic;html=1;rounded=0;exitX=0;exitY=0.3333333333333333;exitDx=0;exitDy=0;exitPerimeter=0;entryX=1;entryY=0.5;entryDx=0;entryDy=0;" edge="1" parent="1" source="U6eZ_UIwISc4JZZjRvjD-6" target="U6eZ_UIwISc4JZZjRvjD-4">
          <mxGeometry width="50" height="50" relative="1" as="geometry">
            <mxPoint x="110" y="540" as="sourcePoint" />
            <mxPoint x="160" y="490" as="targetPoint" />
          </mxGeometry>
        </mxCell>
      </root>
    </mxGraphModel>
  </diagram>
  <diagram id="wxrys52yoG6YuC7rD2F8" name="Page-3">
    <mxGraphModel dx="1200" dy="677" grid="1" gridSize="10" guides="1" tooltips="1" connect="1" arrows="1" fold="1" page="1" pageScale="1" pageWidth="827" pageHeight="1169" math="0" shadow="0">
      <root>
        <mxCell id="0" />
        <mxCell id="1" parent="0" />
        <mxCell id="K1orhDyZ93ntgUIDCI2C-1" value="siswa" style="shape=umlActor;verticalLabelPosition=bottom;verticalAlign=top;html=1;outlineConnect=0;" vertex="1" parent="1">
          <mxGeometry x="60" y="110" width="60" height="130" as="geometry" />
        </mxCell>
        <mxCell id="K1orhDyZ93ntgUIDCI2C-2" value="guru" style="shape=umlActor;verticalLabelPosition=bottom;verticalAlign=top;html=1;outlineConnect=0;" vertex="1" parent="1">
          <mxGeometry x="620" y="110" width="60" height="130" as="geometry" />
        </mxCell>
        <mxCell id="K1orhDyZ93ntgUIDCI2C-3" value="" style="endArrow=classic;html=1;rounded=0;exitX=1;exitY=0.3333333333333333;exitDx=0;exitDy=0;exitPerimeter=0;" edge="1" parent="1" source="K1orhDyZ93ntgUIDCI2C-1">
          <mxGeometry width="50" height="50" relative="1" as="geometry">
            <mxPoint x="450" y="420" as="sourcePoint" />
            <mxPoint x="250" y="153" as="targetPoint" />
          </mxGeometry>
        </mxCell>
        <mxCell id="K1orhDyZ93ntgUIDCI2C-4" value="mendaftar" style="text;html=1;align=center;verticalAlign=middle;whiteSpace=wrap;rounded=0;" vertex="1" parent="1">
          <mxGeometry x="304" y="140" width="110" height="30" as="geometry" />
        </mxCell>
        <mxCell id="K1orhDyZ93ntgUIDCI2C-5" value="" style="endArrow=classic;html=1;rounded=0;" edge="1" parent="1">
          <mxGeometry width="50" height="50" relative="1" as="geometry">
            <mxPoint x="440" y="150" as="sourcePoint" />
            <mxPoint x="580" y="150" as="targetPoint" />
          </mxGeometry>
        </mxCell>
        <mxCell id="K1orhDyZ93ntgUIDCI2C-6" value="membaca" style="ellipse;whiteSpace=wrap;html=1;" vertex="1" parent="1">
          <mxGeometry x="299" y="260" width="120" height="80" as="geometry" />
        </mxCell>
        <mxCell id="K1orhDyZ93ntgUIDCI2C-7" value="mengembalikan&lt;div&gt;&amp;nbsp;buku&lt;/div&gt;" style="ellipse;whiteSpace=wrap;html=1;" vertex="1" parent="1">
          <mxGeometry x="299" y="420" width="120" height="80" as="geometry" />
        </mxCell>
        <mxCell id="K1orhDyZ93ntgUIDCI2C-8" value="denda" style="ellipse;whiteSpace=wrap;html=1;" vertex="1" parent="1">
          <mxGeometry x="304" y="580" width="120" height="80" as="geometry" />
        </mxCell>
        <mxCell id="K1orhDyZ93ntgUIDCI2C-9" value="" style="endArrow=classic;html=1;rounded=0;entryX=0.5;entryY=0;entryDx=0;entryDy=0;" edge="1" parent="1" source="K1orhDyZ93ntgUIDCI2C-4" target="K1orhDyZ93ntgUIDCI2C-6">
          <mxGeometry width="50" height="50" relative="1" as="geometry">
            <mxPoint x="460" y="430" as="sourcePoint" />
            <mxPoint x="510" y="380" as="targetPoint" />
          </mxGeometry>
        </mxCell>
        <mxCell id="K1orhDyZ93ntgUIDCI2C-10" value="" style="endArrow=none;dashed=1;html=1;rounded=0;entryX=0.5;entryY=1;entryDx=0;entryDy=0;" edge="1" parent="1" source="K1orhDyZ93ntgUIDCI2C-7" target="K1orhDyZ93ntgUIDCI2C-6">
          <mxGeometry width="50" height="50" relative="1" as="geometry">
            <mxPoint x="359" y="410" as="sourcePoint" />
            <mxPoint x="510" y="380" as="targetPoint" />
          </mxGeometry>
        </mxCell>
        <mxCell id="K1orhDyZ93ntgUIDCI2C-11" value="" style="endArrow=none;dashed=1;html=1;rounded=0;" edge="1" parent="1" source="K1orhDyZ93ntgUIDCI2C-7">
          <mxGeometry width="50" height="50" relative="1" as="geometry">
            <mxPoint x="400" y="360" as="sourcePoint" />
            <mxPoint x="359" y="580" as="targetPoint" />
          </mxGeometry>
        </mxCell>
        <mxCell id="K1orhDyZ93ntgUIDCI2C-12" value="&amp;lt;&amp;lt;include&amp;gt;&amp;gt;" style="text;html=1;align=center;verticalAlign=middle;whiteSpace=wrap;rounded=0;" vertex="1" parent="1">
          <mxGeometry x="380" y="380" width="60" height="30" as="geometry" />
        </mxCell>
        <mxCell id="K1orhDyZ93ntgUIDCI2C-13" value="&amp;lt;&amp;lt;extend&amp;gt;&amp;gt;" style="text;html=1;align=center;verticalAlign=middle;whiteSpace=wrap;rounded=0;" vertex="1" parent="1">
          <mxGeometry x="380" y="530" width="60" height="30" as="geometry" />
        </mxCell>
      </root>
    </mxGraphModel>
  </diagram>
  <diagram id="4F6GGYWLyymhHMc52YB-" name="Page-4">
    <mxGraphModel dx="1200" dy="677" grid="1" gridSize="10" guides="1" tooltips="1" connect="1" arrows="1" fold="1" page="1" pageScale="1" pageWidth="827" pageHeight="1169" math="0" shadow="0">
      <root>
        <mxCell id="0" />
        <mxCell id="1" parent="0" />
        <mxCell id="gd0lQppa3wIoMokLyldt-1" value="Actor" style="shape=umlActor;verticalLabelPosition=bottom;verticalAlign=top;html=1;outlineConnect=0;" vertex="1" parent="1">
          <mxGeometry x="60" y="140" width="90" height="210" as="geometry" />
        </mxCell>
        <mxCell id="gd0lQppa3wIoMokLyldt-2" value="register" style="ellipse;whiteSpace=wrap;html=1;" vertex="1" parent="1">
          <mxGeometry x="294" y="50" width="166" height="50" as="geometry" />
        </mxCell>
        <mxCell id="gd0lQppa3wIoMokLyldt-3" value="login" style="ellipse;whiteSpace=wrap;html=1;" vertex="1" parent="1">
          <mxGeometry x="294" y="130" width="176" height="50" as="geometry" />
        </mxCell>
        <mxCell id="gd0lQppa3wIoMokLyldt-4" value="score database" style="ellipse;whiteSpace=wrap;html=1;" vertex="1" parent="1">
          <mxGeometry x="294" y="200" width="186" height="50" as="geometry" />
        </mxCell>
        <mxCell id="gd0lQppa3wIoMokLyldt-5" value="add data to database" style="ellipse;whiteSpace=wrap;html=1;" vertex="1" parent="1">
          <mxGeometry x="294" y="270" width="176" height="50" as="geometry" />
        </mxCell>
        <mxCell id="gd0lQppa3wIoMokLyldt-6" value="logout" style="ellipse;whiteSpace=wrap;html=1;" vertex="1" parent="1">
          <mxGeometry x="292" y="350" width="186" height="50" as="geometry" />
        </mxCell>
        <mxCell id="gd0lQppa3wIoMokLyldt-7" value="delete user" style="ellipse;whiteSpace=wrap;html=1;" vertex="1" parent="1">
          <mxGeometry x="230" y="420" width="200" height="50" as="geometry" />
        </mxCell>
        <mxCell id="gd0lQppa3wIoMokLyldt-8" value="delete from database" style="ellipse;whiteSpace=wrap;html=1;" vertex="1" parent="1">
          <mxGeometry x="140" y="480" width="200" height="50" as="geometry" />
        </mxCell>
        <mxCell id="hoJufNmvKnZPxkXZId2W-1" value="" style="endArrow=classic;html=1;rounded=0;entryX=0;entryY=0;entryDx=0;entryDy=0;" edge="1" parent="1" target="gd0lQppa3wIoMokLyldt-6">
          <mxGeometry width="50" height="50" relative="1" as="geometry">
            <mxPoint x="150" y="210" as="sourcePoint" />
            <mxPoint x="440" y="300" as="targetPoint" />
          </mxGeometry>
        </mxCell>
        <mxCell id="hoJufNmvKnZPxkXZId2W-2" value="" style="endArrow=classic;html=1;rounded=0;exitX=1;exitY=0.3333333333333333;exitDx=0;exitDy=0;exitPerimeter=0;" edge="1" parent="1" source="gd0lQppa3wIoMokLyldt-1" target="gd0lQppa3wIoMokLyldt-5">
          <mxGeometry width="50" height="50" relative="1" as="geometry">
            <mxPoint x="390" y="350" as="sourcePoint" />
            <mxPoint x="440" y="300" as="targetPoint" />
          </mxGeometry>
        </mxCell>
        <mxCell id="hoJufNmvKnZPxkXZId2W-3" value="" style="endArrow=classic;html=1;rounded=0;exitX=1;exitY=0.3333333333333333;exitDx=0;exitDy=0;exitPerimeter=0;" edge="1" parent="1" source="gd0lQppa3wIoMokLyldt-1" target="gd0lQppa3wIoMokLyldt-3">
          <mxGeometry width="50" height="50" relative="1" as="geometry">
            <mxPoint x="390" y="350" as="sourcePoint" />
            <mxPoint x="440" y="300" as="targetPoint" />
          </mxGeometry>
        </mxCell>
        <mxCell id="hoJufNmvKnZPxkXZId2W-4" value="" style="endArrow=classic;html=1;rounded=0;exitX=1;exitY=0.3333333333333333;exitDx=0;exitDy=0;exitPerimeter=0;entryX=0.195;entryY=0.889;entryDx=0;entryDy=0;entryPerimeter=0;" edge="1" parent="1" source="gd0lQppa3wIoMokLyldt-1" target="gd0lQppa3wIoMokLyldt-2">
          <mxGeometry width="50" height="50" relative="1" as="geometry">
            <mxPoint x="390" y="350" as="sourcePoint" />
            <mxPoint x="440" y="300" as="targetPoint" />
          </mxGeometry>
        </mxCell>
        <mxCell id="hoJufNmvKnZPxkXZId2W-5" value="" style="endArrow=classic;html=1;rounded=0;entryX=0.271;entryY=0.016;entryDx=0;entryDy=0;entryPerimeter=0;" edge="1" parent="1" target="gd0lQppa3wIoMokLyldt-8">
          <mxGeometry width="50" height="50" relative="1" as="geometry">
            <mxPoint x="150" y="210" as="sourcePoint" />
            <mxPoint x="440" y="310" as="targetPoint" />
          </mxGeometry>
        </mxCell>
        <mxCell id="hoJufNmvKnZPxkXZId2W-6" value="" style="endArrow=classic;html=1;rounded=0;exitX=1;exitY=0.3333333333333333;exitDx=0;exitDy=0;exitPerimeter=0;entryX=0.181;entryY=0.107;entryDx=0;entryDy=0;entryPerimeter=0;" edge="1" parent="1" source="gd0lQppa3wIoMokLyldt-1" target="gd0lQppa3wIoMokLyldt-7">
          <mxGeometry width="50" height="50" relative="1" as="geometry">
            <mxPoint x="390" y="360" as="sourcePoint" />
            <mxPoint x="440" y="310" as="targetPoint" />
          </mxGeometry>
        </mxCell>
      </root>
    </mxGraphModel>
  </diagram>
  <diagram id="HP3rcn_oC-CxcRhvG-VR" name="Page-5">
    <mxGraphModel dx="1200" dy="677" grid="1" gridSize="10" guides="1" tooltips="1" connect="1" arrows="1" fold="1" page="1" pageScale="1" pageWidth="827" pageHeight="1169" math="0" shadow="0">
      <root>
        <mxCell id="0" />
        <mxCell id="1" parent="0" />
        <mxCell id="QekOC9zpwk1xRSlilynm-1" value="place order" style="ellipse;whiteSpace=wrap;html=1;" vertex="1" parent="1">
          <mxGeometry x="300" y="120" width="120" height="80" as="geometry" />
        </mxCell>
        <mxCell id="QekOC9zpwk1xRSlilynm-2" value="cancel order" style="ellipse;whiteSpace=wrap;html=1;" vertex="1" parent="1">
          <mxGeometry x="300" y="220" width="120" height="80" as="geometry" />
        </mxCell>
        <mxCell id="QekOC9zpwk1xRSlilynm-3" value="manage order" style="ellipse;whiteSpace=wrap;html=1;" vertex="1" parent="1">
          <mxGeometry x="300" y="330" width="120" height="80" as="geometry" />
        </mxCell>
        <mxCell id="QekOC9zpwk1xRSlilynm-4" value="change order stars" style="ellipse;whiteSpace=wrap;html=1;" vertex="1" parent="1">
          <mxGeometry x="300" y="430" width="120" height="80" as="geometry" />
        </mxCell>
        <mxCell id="QekOC9zpwk1xRSlilynm-5" value="update products" style="ellipse;whiteSpace=wrap;html=1;" vertex="1" parent="1">
          <mxGeometry x="300" y="530" width="120" height="80" as="geometry" />
        </mxCell>
        <mxCell id="QekOC9zpwk1xRSlilynm-6" value="online store" style="text;html=1;align=center;verticalAlign=middle;whiteSpace=wrap;rounded=0;" vertex="1" parent="1">
          <mxGeometry x="310" y="70" width="120" height="20" as="geometry" />
        </mxCell>
        <mxCell id="QekOC9zpwk1xRSlilynm-7" value="visitoc" style="shape=umlActor;verticalLabelPosition=bottom;verticalAlign=top;html=1;outlineConnect=0;" vertex="1" parent="1">
          <mxGeometry x="80" y="210" width="80" height="150" as="geometry" />
        </mxCell>
        <mxCell id="QekOC9zpwk1xRSlilynm-8" value="admin" style="shape=umlActor;verticalLabelPosition=bottom;verticalAlign=top;html=1;outlineConnect=0;" vertex="1" parent="1">
          <mxGeometry x="620" y="210" width="80" height="150" as="geometry" />
        </mxCell>
        <mxCell id="QekOC9zpwk1xRSlilynm-9" value="" style="endArrow=classic;html=1;rounded=0;exitX=1;exitY=0.3333333333333333;exitDx=0;exitDy=0;exitPerimeter=0;" edge="1" parent="1" source="QekOC9zpwk1xRSlilynm-7" target="QekOC9zpwk1xRSlilynm-1">
          <mxGeometry width="50" height="50" relative="1" as="geometry">
            <mxPoint x="390" y="370" as="sourcePoint" />
            <mxPoint x="440" y="320" as="targetPoint" />
          </mxGeometry>
        </mxCell>
        <mxCell id="QekOC9zpwk1xRSlilynm-10" value="" style="endArrow=classic;html=1;rounded=0;exitX=1;exitY=0.3333333333333333;exitDx=0;exitDy=0;exitPerimeter=0;" edge="1" parent="1" source="QekOC9zpwk1xRSlilynm-7" target="QekOC9zpwk1xRSlilynm-2">
          <mxGeometry width="50" height="50" relative="1" as="geometry">
            <mxPoint x="390" y="370" as="sourcePoint" />
            <mxPoint x="440" y="320" as="targetPoint" />
          </mxGeometry>
        </mxCell>
        <mxCell id="QekOC9zpwk1xRSlilynm-11" value="" style="endArrow=classic;html=1;rounded=0;exitX=1;exitY=0.3333333333333333;exitDx=0;exitDy=0;exitPerimeter=0;entryX=0;entryY=0.375;entryDx=0;entryDy=0;entryPerimeter=0;" edge="1" parent="1" source="QekOC9zpwk1xRSlilynm-7" target="QekOC9zpwk1xRSlilynm-3">
          <mxGeometry width="50" height="50" relative="1" as="geometry">
            <mxPoint x="190" y="270" as="sourcePoint" />
            <mxPoint x="440" y="320" as="targetPoint" />
          </mxGeometry>
        </mxCell>
        <mxCell id="QekOC9zpwk1xRSlilynm-12" value="" style="endArrow=classic;html=1;rounded=0;exitX=0;exitY=0.3333333333333333;exitDx=0;exitDy=0;exitPerimeter=0;" edge="1" parent="1" source="QekOC9zpwk1xRSlilynm-8" target="QekOC9zpwk1xRSlilynm-5">
          <mxGeometry width="50" height="50" relative="1" as="geometry">
            <mxPoint x="480" y="430" as="sourcePoint" />
            <mxPoint x="530" y="380" as="targetPoint" />
          </mxGeometry>
        </mxCell>
        <mxCell id="QekOC9zpwk1xRSlilynm-13" value="" style="endArrow=classic;html=1;rounded=0;" edge="1" parent="1" target="QekOC9zpwk1xRSlilynm-4">
          <mxGeometry width="50" height="50" relative="1" as="geometry">
            <mxPoint x="620" y="260" as="sourcePoint" />
            <mxPoint x="530" y="380" as="targetPoint" />
          </mxGeometry>
        </mxCell>
        <mxCell id="QekOC9zpwk1xRSlilynm-14" value="" style="endArrow=classic;html=1;rounded=0;entryX=0.933;entryY=0.337;entryDx=0;entryDy=0;entryPerimeter=0;" edge="1" parent="1" target="QekOC9zpwk1xRSlilynm-3">
          <mxGeometry width="50" height="50" relative="1" as="geometry">
            <mxPoint x="620" y="260" as="sourcePoint" />
            <mxPoint x="530" y="380" as="targetPoint" />
          </mxGeometry>
        </mxCell>
        <mxCell id="QekOC9zpwk1xRSlilynm-15" value="" style="endArrow=classic;html=1;rounded=0;" edge="1" parent="1" target="QekOC9zpwk1xRSlilynm-2">
          <mxGeometry width="50" height="50" relative="1" as="geometry">
            <mxPoint x="620" y="260" as="sourcePoint" />
            <mxPoint x="530" y="380" as="targetPoint" />
          </mxGeometry>
        </mxCell>
      </root>
    </mxGraphModel>
  </diagram>
</mxfile>
